<?xml version="1.0"?>
<svg xmlns="http://www.w3.org/2000/svg" xmlns:xlink="http://www.w3.org/1999/xlink" xmlns:svgjs="http://svgjs.com/svgjs" version="1.1" width="512" height="512" x="0" y="0" viewBox="0 0 512 512" style="enable-background:new 0 0 512 512" xml:space="preserve" class=""><g>
<g xmlns="http://www.w3.org/2000/svg">
	<path d="M368,28c-43.644,0-84.745,19.839-112,53.569C228.745,47.839,187.644,28,144,28C64.598,28,0,92.598,0,172   c0,38.966,13.464,79.681,40.02,121.012c20.959,32.622,50.111,65.745,86.645,98.449c61.931,55.438,124.775,91.151,125.403,91.506   c1.22,0.688,2.577,1.033,3.933,1.033s2.712-0.345,3.933-1.033c0.628-0.354,63.473-36.068,125.403-91.506   c36.534-32.704,65.686-65.827,86.645-98.449C498.536,251.681,512,210.966,512,172C512,92.598,447.402,28,368,28z M458.6,284.238   c-20.145,31.386-48.312,63.385-83.719,95.107c-51.845,46.449-104.345,78.769-118.882,87.392   c-14.512-8.604-66.837-40.805-118.663-87.198c-35.461-31.743-63.674-63.765-83.855-95.176C28.61,245.654,16,207.85,16,172   c0-70.579,57.42-128,128-128c42.059,0,81.466,20.735,105.414,55.468c1.493,2.166,3.956,3.459,6.586,3.459s5.093-1.293,6.586-3.459   C286.534,64.735,325.941,44,368,44c70.58,0,128,57.421,128,128C496,207.811,483.417,245.573,458.6,284.238z" fill="#ffffff" data-original="#000000" style=""/>
	<path d="M368,60c-4.418,0-8,3.582-8,8s3.582,8,8,8c51.942,0,94.963,42.282,95.901,94.253c0.079,4.369,3.645,7.855,7.996,7.855   c0.049,0,0.098,0,0.147-0.001c4.417-0.08,7.934-3.726,7.854-8.143C478.804,109.33,428.607,60,368,60z" fill="#ffffff" data-original="#000000" style=""/>
	<path d="M144,60c-4.418,0-8,3.582-8,8s3.582,8,8,8c31.536,0,61.094,15.563,79.069,41.633c1.552,2.251,4.051,3.459,6.593,3.459   c1.565,0,3.147-0.458,4.534-1.415c3.638-2.508,4.553-7.49,2.045-11.127C215.28,78.149,180.797,60,144,60z" fill="#ffffff" data-original="#000000" style=""/>
</g>
<g xmlns="http://www.w3.org/2000/svg">
</g>
<g xmlns="http://www.w3.org/2000/svg">
</g>
<g xmlns="http://www.w3.org/2000/svg">
</g>
<g xmlns="http://www.w3.org/2000/svg">
</g>
<g xmlns="http://www.w3.org/2000/svg">
</g>
<g xmlns="http://www.w3.org/2000/svg">
</g>
<g xmlns="http://www.w3.org/2000/svg">
</g>
<g xmlns="http://www.w3.org/2000/svg">
</g>
<g xmlns="http://www.w3.org/2000/svg">
</g>
<g xmlns="http://www.w3.org/2000/svg">
</g>
<g xmlns="http://www.w3.org/2000/svg">
</g>
<g xmlns="http://www.w3.org/2000/svg">
</g>
<g xmlns="http://www.w3.org/2000/svg">
</g>
<g xmlns="http://www.w3.org/2000/svg">
</g>
<g xmlns="http://www.w3.org/2000/svg">
</g>
</g></svg>
