<?xml version="1.0"?>
<svg xmlns="http://www.w3.org/2000/svg" xmlns:xlink="http://www.w3.org/1999/xlink" xmlns:svgjs="http://svgjs.com/svgjs" version="1.1" width="512" height="512" x="0" y="0" viewBox="0 0 512.068 512.068" style="enable-background:new 0 0 512 512" xml:space="preserve" class=""><g><g xmlns="http://www.w3.org/2000/svg"><g><g><path d="m420.13 88.973c1.598 3.902 5.673 6.45 9.887 6.158 4.23-.293 7.899-3.297 9.003-7.391 1.076-3.99-.503-8.363-3.881-10.741-3.256-2.293-7.666-2.439-11.055-.34-4.101 2.537-5.809 7.864-3.954 12.314z" fill="#ffffff" data-original="#000000" style="" class=""/><path d="m377.114 174.6c-8.027-7.566-18.506-11.552-29.549-11.23-11.027.324-21.268 4.923-28.837 12.949-7.568 8.025-11.558 18.519-11.234 29.545l.327 11.12c.102 3.444 1.969 6.594 4.942 8.335 2.972 1.742 6.634 1.83 9.687.233.072-.038 7.502-3.782 17.61-4.079 11.111-.345 26.312 5.28 28.966 10.719 1.68 3.441 5.172 5.613 8.985 5.613.098 0 .196-.001.295-.004 3.927-.116 7.422-2.52 8.935-6.146 2.266-5.43 3.327-11.183 3.153-17.102l-.328-11.119c-.324-11.025-4.923-21.266-12.952-28.834zm-36.286 26.862c-.461 0-.914.007-1.356.02-4.39.13-8.414.702-11.929 1.455.38-4.817 2.373-9.329 5.736-12.896 3.904-4.14 9.187-6.511 14.874-6.678 5.69-.162 11.103 1.891 15.242 5.792 4.14 3.902 6.512 9.183 6.679 14.87l.127 4.283c-9.608-4.671-20.97-6.846-29.373-6.846z" fill="#ffffff" data-original="#000000" style="" class=""/><path d="m164.435 163.37c-11.029-.317-21.521 3.665-29.549 11.23-8.028 7.567-12.628 17.809-12.952 28.834l-.328 11.121c-.174 5.918.888 11.671 3.153 17.101 1.513 3.626 5.008 6.029 8.935 6.146.099.003.197.004.295.004 3.813 0 7.306-2.172 8.985-5.613 2.58-5.285 16.973-10.733 28.019-10.733.318 0 .635.005.948.015 10.04.295 17.587 4.068 17.609 4.079 3.053 1.598 6.714 1.509 9.687-.233 2.974-1.741 4.841-4.891 4.942-8.335l.327-11.12c.323-11.026-3.666-21.52-11.234-29.545-7.57-8.028-17.81-12.627-28.837-12.951zm8.094 38.111c-8.513-.247-20.595 1.899-30.73 6.826l.127-4.284c.167-5.687 2.539-10.967 6.679-14.869 3.984-3.756 9.146-5.802 14.599-5.802.214 0 .429.003.644.01 5.688.167 10.97 2.538 14.874 6.678 3.363 3.567 5.356 8.079 5.736 12.896-3.516-.753-7.54-1.325-11.929-1.455z" fill="#ffffff" data-original="#000000" style="" class=""/><path d="m467.271 112.14c-3.126-4.554-9.351-5.71-13.904-2.586-4.554 3.126-5.711 9.351-2.586 13.904 64.214 93.552 52.479 219.783-27.902 300.15-20.371 20.366-47.247 35.896-74.581 47.073 2.34-3.228 4.51-6.594 6.46-10.111l3.267-5.891c17.591-31.722 7.305-71.679-23.418-90.967l-51.363-32.244 2.836-29.448h48.82c5.522 0 10-4.478 10-10s-4.478-10-10-10h-46.897l1.161-12.06c.004-.046.009-.092.012-.138 1.356-16.455-9.172-31.73-25.034-36.321-9.388-2.718-19.55-1.348-27.884 3.754-8.308 5.088-14.136 13.481-16 23.04l-4.519 21.725h-38.639c-5.522 0-10 4.478-10 10s4.478 10 10 10h34.479l-25.002 120.19c-.011.049-.021.098-.029.146-4.309 22.376 1.898 44.52 15.551 61.005-44.346-10.814-85.103-31.885-112.977-59.752-44.574-44.566-69.122-103.819-69.122-166.845s24.548-122.278 69.122-166.844c80.302-80.286 206.48-92.073 300.021-28.029 4.556 3.118 10.779 1.956 13.9-2.602 3.12-4.557 1.956-10.78-2.602-13.9-101.479-69.482-238.356-56.703-325.46 30.388-48.352 48.343-74.981 112.619-74.981 180.987s26.629 132.644 74.981 180.987c24.079 24.075 56.437 43.633 93.574 56.558 29.167 10.152 60.081 15.933 90.244 16.967 3.034.279 28.714-1.042 38.182-3.938 45.454-9.777 102.548-32.103 140.037-69.586 87.195-87.178 99.918-224.117 30.253-325.612zm-126.738 332.841-3.267 5.891c-10.003 18.039-25.902 30.754-44.078 36.845-7.319 1.575-14.321 2.809-20.86 3.71-4.202.064-8.415.03-12.63-.107-6.511-.707-13.041-2.211-19.459-4.602-24.694-9.198-39.012-34.639-34.065-60.511l33.679-161.899c.011-.049.021-.098.029-.146.799-4.146 3.221-7.643 6.821-9.848 3.602-2.207 7.817-2.773 11.879-1.6 6.736 1.95 11.215 8.423 10.668 15.407l-6.508 67.576c-.032.332-.027.662-.026.991l-8.625 50.484c-.93 5.443 2.729 10.61 8.174 11.541.569.097 1.136.145 1.695.145 4.783 0 9.013-3.444 9.846-8.318l6.385-37.371 27.635 17.349-8.171 47.821c-.93 5.444 2.729 10.611 8.173 11.542.57.097 1.137.145 1.696.145 4.783 0 9.013-3.444 9.846-8.317l6.767-39.607c20.03 14.113 26.412 41.211 14.396 62.879z" fill="#ffffff" data-original="#000000" style="" class=""/></g></g></g></g></svg>
