<?xml version="1.0"?>
<svg xmlns="http://www.w3.org/2000/svg" xmlns:xlink="http://www.w3.org/1999/xlink" xmlns:svgjs="http://svgjs.com/svgjs" version="1.1" width="512" height="512" x="0" y="0" viewBox="0 0 511.959 511.959" style="enable-background:new 0 0 512 512" xml:space="preserve" class=""><g><g xmlns="http://www.w3.org/2000/svg"><g><g><g><g><path d="m472.738 12.48h-163.536c-16.138 0-29.221 13.083-29.221 29.221v97.461c0 16.138 13.083 29.221 29.221 29.221h46.992l10.281 29.854 43.232-29.854h63.031c16.138 0 29.221-13.083 29.221-29.221v-97.461c0-16.139-13.082-29.221-29.221-29.221z" fill="#ccf5fc" data-original="#ccf5fc" style=""/></g></g></g><g><g><g><g><g><path d="m9.959 280.275c78.734 72.07 37.632 100.332 172.019 100.332 134.387 0 93.285-28.262 172.019-100.332" fill="#eb3f61" data-original="#ff9eb1" style="" class=""/></g></g></g><g><g><path d="m183.43 286.635c8.572.187 17.078-2.17 24.347-7.496 9.76-7.151 22.043-9.929 33.93-7.676 16.294 3.087 39.596 7.919 55.021 12.907 29.886 9.663 57.268-4.095 57.268-4.095s-69.5-73.772-90.226-88.123c-36.121-25.011-55.21 5.289-81.793 25.135-26.583-19.846-45.672-50.146-81.793-25.135-20.726 14.351-90.226 88.123-90.226 88.123s27.383 11.758 57.268 2.095c5.512-1.782 12.031-3.545 18.876-5.215" fill="#f10030" data-original="#ff7d97" style="" class=""/></g></g></g><g><g><g><g><path d="m90.552 499.48h91.426v-117.128-81.998c0-25.247-20.466-45.713-45.713-45.713-25.247 0-45.713 20.466-45.713 45.713z" fill="#ffdcd5" data-original="#ffdcd5" style=""/></g></g></g><g><g><path d="m90.552 353.074h28.816c9.332 0 16.897-7.565 16.897-16.897v-57.841c0-17.454-14.149-31.604-31.604-31.604h-14.109z" fill="#9479df" data-original="#c193dc" style="" class=""/></g></g></g></g></g><g><g><g><g><path d="m444.071 75.973h-106.201c-5.523 0-10-4.477-10-10s4.477-10 10-10h106.201c5.523 0 10 4.477 10 10s-4.478 10-10 10z" fill="#000000" data-original="#000000" style=""/></g></g></g><g><g><g><path d="m444.071 123.41h-106.201c-5.523 0-10-4.477-10-10s4.477-10 10-10h106.201c5.523 0 10 4.477 10 10s-4.478 10-10 10z" fill="#000000" data-original="#000000" style=""/></g></g></g><g><path d="m362.374 273.523c-.933-1.02-2.029-1.802-3.212-2.343-12.065-12.741-70.193-73.744-89.697-87.25-15.871-10.99-30.858-13.889-45.819-8.864-12.505 4.201-23.109 13.438-33.364 22.372-2.718 2.367-5.489 4.781-8.303 7.108-2.814-2.328-5.584-4.741-8.301-7.108-10.256-8.933-20.86-18.171-33.365-22.372-14.963-5.027-29.949-2.126-45.819 8.864-21.346 14.78-88.944 86.443-91.812 89.487-3.77 4.015-3.536 10.507.526 14.234 23.813 21.797 36.284 39.433 46.306 53.604 9.817 13.883 17.597 24.878 31.039 33.147v125.078c0 5.523 4.478 10 10 10h91.426c5.522 0 10-4.477 10-10v-20.794c0-5.523-4.478-10-10-10-5.523 0-10 4.477-10 10v10.794h-71.426v-126.406h18.816c14.831 0 26.896-12.066 26.896-26.897v-57.84c0-4.463-.709-8.762-2.016-12.795 15.861 3.636 27.729 17.864 27.729 34.812v87.92c0 5.523 4.477 10 10 10 4.734 0 8.697-3.291 9.733-7.709 41.599-.403 66.175-3.807 83.646-11.446 19.27-8.426 28.456-21.417 40.087-37.863 10.021-14.171 22.493-31.808 46.306-53.604 4.074-3.73 4.353-10.056.624-14.129zm-296.532 56.185c-6.785-9.595-14.641-20.698-26.105-33.563 9.257.246 19.745-.761 30.567-4.261 2.967-.959 6.398-1.961 10.248-2.992v59.842c-4.902-5.16-9.361-11.463-14.71-19.026zm60.423 6.469c0 3.803-3.094 6.897-6.896 6.897h-18.816v-86.341h4.109c11.912 0 21.604 9.691 21.604 21.604v57.84zm10-91.536c-1.492 0-3.002.06-4.487.179-.693.056-1.365.181-2.007.368-6.983-5.303-15.684-8.454-25.109-8.454h-14.11c-5.522 0-10 4.477-10 10v21.496c-6.313 1.592-11.82 3.145-16.401 4.625-13.195 4.267-26.003 3.72-35.388 2.159 23.706-24.736 63.432-65.165 77.114-74.64 21.723-15.041 33.067-6.666 54.663 12.146 4.902 4.271 9.973 8.688 15.455 12.781 3.549 2.649 8.416 2.649 11.965 0 5.482-4.093 10.553-8.51 15.456-12.781 21.597-18.811 32.939-27.186 54.662-12.145 13.829 9.575 54.273 50.785 77.882 75.441-9.383 2.157-22.576 3.431-36.155-.96-15.81-5.112-39.308-10.009-56.235-13.217-14.561-2.758-29.754.681-41.702 9.435-4.4 3.224-9.62 5.09-15.234 5.487-8.941-18.852-28.157-31.92-50.369-31.92zm162.849 85.067c-10.977 15.522-17.602 24.892-31.77 31.086-14.608 6.387-37.416 9.373-75.366 9.766v-70.207c0-1.426-.055-2.84-.16-4.24 7.965-1.152 15.4-4.169 21.87-8.908 7.494-5.491 17.031-7.649 26.157-5.918 16.365 3.101 38.984 7.804 53.807 12.597 8.865 2.866 17.497 3.927 25.426 3.927 1.625 0 3.219-.046 4.78-.128-10.731 12.214-18.231 22.814-24.744 32.025z" fill="#000000" data-original="#000000" style=""/><g><g><g><path d="m181.979 443.659c-4.178 0-8.003-2.693-9.414-6.626-1.391-3.876-.197-8.335 2.946-10.996 3.282-2.778 8.092-3.123 11.745-.864 3.499 2.163 5.333 6.416 4.523 10.446-.929 4.621-5.084 8.04-9.8 8.04z" fill="#000000" data-original="#000000" style=""/></g></g></g></g><g><g><path d="m366.474 208.236c-1.047 0-2.1-.165-3.12-.499-2.972-.976-5.315-3.287-6.334-6.244l-7.959-23.11h-39.859c-21.626 0-39.221-17.595-39.221-39.221v-97.461c0-21.627 17.595-39.221 39.221-39.221h163.537c21.626 0 39.221 17.595 39.221 39.221v97.461c0 21.627-17.595 39.221-39.221 39.221h-59.915l-40.666 28.082c-1.692 1.168-3.677 1.771-5.684 1.771zm-57.272-185.756c-10.599 0-19.221 8.623-19.221 19.221v97.461c0 10.599 8.622 19.221 19.221 19.221h46.992c4.268 0 8.065 2.708 9.455 6.744l5.989 17.392 32.386-22.364c1.671-1.154 3.652-1.771 5.683-1.771h63.032c10.599 0 19.221-8.622 19.221-19.221v-97.462c0-10.599-8.622-19.221-19.221-19.221z" fill="#000000" data-original="#000000" style=""/></g></g></g></g></g></svg>
